<?xml version="1.0" encoding="utf-8"?>
<!-- Generator: Adobe Illustrator 16.0.0, SVG Export Plug-In . SVG Version: 6.00 Build 0)  -->
<!DOCTYPE svg PUBLIC "-//W3C//DTD SVG 1.1//EN" "http://www.w3.org/Graphics/SVG/1.1/DTD/svg11.dtd">
<svg version="1.1" id="Layer_1" xmlns="http://www.w3.org/2000/svg" xmlns:xlink="http://www.w3.org/1999/xlink" x="0px" y="0px"
	 width="298px" height="148px" viewBox="0 0 298 148" enable-background="new 0 0 298 148" xml:space="preserve">
<g>
	<path fill="#BDC3C7" d="M27.568,74.845c-0.863-1.995-1.319-4.222-1.369-6.685c-0.05-2.118,0.278-4.634,0.987-7.554
		c0.712-2.928,2.22-6.253,4.539-9.999c2.135-3.406,4.344-6.224,6.628-8.442c2.307-2.241,4.584-3.929,6.831-5.055
		c2.268-1.136,4.488-1.747,6.66-1.83c2.191-0.081,4.246,0.316,6.159,1.202c1.811,0.836,2.883,2.362,3.208,4.573
		c0.324,2.216,0.133,4.777-0.573,7.677c-0.706,2.894-1.79,5.91-3.244,9.044c-1.447,3.115-3.027,6.043-4.74,8.78
		c-1.7,2.717-3.374,5.07-5.021,7.062c-1.635,1.98-3.025,3.288-4.175,3.932c-0.709,0.401-1.362,0.441-1.958,0.124
		c-0.596-0.316-1.054-0.745-1.376-1.292c-0.323-0.544-0.484-1.135-0.484-1.77c0-0.636,0.213-1.11,0.645-1.425
		c0.972-0.709,2.11-1.877,3.419-3.512c1.316-1.644,2.653-3.495,4.014-5.556c1.367-2.073,2.657-4.276,3.872-6.611
		c1.22-2.347,2.204-4.551,2.949-6.606c0.745-2.062,1.134-3.884,1.164-5.462c0.027-1.576-0.447-2.663-1.423-3.261
		c-0.972-0.592-2.124-0.83-3.453-0.717c-1.323,0.115-2.748,0.604-4.275,1.463c-1.519,0.854-3.107,2.142-4.767,3.856
		c-1.648,1.702-3.297,3.888-4.947,6.549c-1.534,2.422-2.702,4.804-3.512,7.153c-0.809,2.344-1.302,4.527-1.482,6.558
		c-0.183,2.028-0.117,3.896,0.194,5.606c0.312,1.714,0.831,3.103,1.562,4.166c0.575,0.94,0.693,1.805,0.353,2.592
		c-0.341,0.789-0.797,1.127-1.37,1.021c-1.039-0.285-2.162-0.253-3.369,0.093c-1.201,0.346-2.332,0.996-3.394,1.945
		c-1.056,0.945-1.958,2.202-2.707,3.771c-0.746,1.562-1.192,3.396-1.341,5.504c-0.147,2.242,0.012,4.188,0.484,5.839
		c0.472,1.658,1.157,3.009,2.057,4.055c0.903,1.052,1.974,1.812,3.217,2.285c1.25,0.477,2.57,0.646,3.964,0.5
		c1.037-0.073,2.185-0.565,3.443-1.481c1.266-0.919,2.484-1.95,3.658-3.093c1.178-1.146,2.229-2.296,3.149-3.451
		c0.923-1.156,1.578-2.063,1.96-2.715c0.328-0.65,0.78-1.003,1.357-1.057c0.579-0.053,1.103,0.058,1.573,0.33
		c0.47,0.274,0.804,0.714,0.999,1.319c0.195,0.606,0.125,1.236-0.208,1.891c-0.333,0.654-0.777,1.399-1.33,2.232
		c-0.552,0.834-1.186,1.72-1.898,2.656c-0.712,0.934-1.462,1.866-2.25,2.795c-0.786,0.925-1.581,1.777-2.388,2.554
		c-1.499,1.549-2.973,2.63-4.425,3.25c-1.444,0.615-2.785,0.985-4.029,1.112c-2.16,0.113-4.146-0.165-5.964-0.833
		c-1.803-0.66-3.332-1.74-4.59-3.235c-1.251-1.484-2.229-3.384-2.934-5.696c-0.703-2.305-1.029-5.028-0.981-8.181
		c0.047-3.753,0.617-6.778,1.71-9.085c1.099-2.316,2.339-4.132,3.723-5.438C23.662,76.76,25.492,75.609,27.568,74.845z"/>
	<path fill="#BDC3C7" d="M66.268,96.2c0.24-0.603,0.542-1.322,0.905-2.158c0.364-0.833,0.741-1.688,1.137-2.563
		c0.395-0.876,0.761-1.718,1.097-2.52c0.335-0.805,0.657-1.476,0.964-2.017c0.368-0.845,0.506-1.398,0.414-1.66
		c-0.092-0.26-0.308-0.344-0.644-0.255c-0.337,0.091-0.719,0.277-1.146,0.56c-0.426,0.282-0.792,0.58-1.095,0.893
		c-1.452,1.258-2.865,2.654-4.241,4.193c-0.12,0.227-0.223,0.473-0.312,0.735c-0.09,0.264-0.194,0.508-0.313,0.734
		c-0.356,0.829-0.86,2.104-1.511,3.823c-0.649,1.717-1.326,3.502-2.029,5.355c-0.703,1.849-1.373,3.619-2.012,5.31
		c-0.64,1.688-1.13,2.894-1.476,3.623c-0.346,0.802-0.895,1.308-1.639,1.517c-0.744,0.211-1.443,0.183-2.096-0.078
		c-0.652-0.263-1.176-0.721-1.571-1.377c-0.395-0.653-0.422-1.415-0.084-2.28c0.225-0.577,0.72-1.862,1.484-3.86
		c0.767-2.002,1.58-4.159,2.438-6.47c0.862-2.319,1.668-4.48,2.42-6.482c0.754-2.009,1.277-3.277,1.57-3.806
		c0.35-0.823,0.481-1.362,0.395-1.617c-0.088-0.254-0.278-0.337-0.569-0.252c-0.292,0.087-0.655,0.269-1.091,0.544
		c-0.435,0.276-0.797,0.567-1.085,0.872c-0.98,0.844-2.012,1.852-3.097,3.02c-1.081,1.164-2.015,2.298-2.803,3.405l-5.257,15.695
		c-0.386,0.999-0.988,1.636-1.809,1.911c-0.817,0.274-1.59,0.25-2.32-0.078c-0.728-0.325-1.279-0.931-1.655-1.815
		c-0.374-0.886-0.321-1.995,0.162-3.336c0.483-1.413,1.143-3.274,1.979-5.587c0.842-2.319,1.712-4.755,2.613-7.31
		c0.906-2.563,1.786-5.084,2.644-7.558c0.859-2.481,1.597-4.608,2.212-6.373c0.223-0.661,0.7-1.105,1.431-1.333
		c0.732-0.225,1.453-0.254,2.163-0.079c0.711,0.174,1.295,0.539,1.754,1.095c0.458,0.558,0.544,1.282,0.258,2.173l-0.601,1.783
		l0.687-0.803c1.61-1.842,3-3.095,4.166-3.754c1.169-0.66,2.184-0.944,3.041-0.851c0.857,0.098,1.571,0.499,2.138,1.208
		c0.567,0.715,1.032,1.546,1.392,2.495l0.271,0.883c0.12-0.081,0.3-0.277,0.541-0.589c1.692-1.892,3.152-3.177,4.377-3.854
		c1.23-0.681,2.296-0.975,3.196-0.878c0.902,0.097,1.652,0.51,2.249,1.235c0.597,0.731,1.085,1.584,1.464,2.557
		c0.631,1.502,0.664,3.206,0.095,5.108c-0.567,1.9-1.386,4.052-2.451,6.45c-0.687,1.694-1.402,3.29-2.146,4.787
		c-0.743,1.492-1.483,3.036-2.22,4.634c-0.368,0.834-0.538,1.382-0.506,1.646c0.03,0.265,0.183,0.357,0.459,0.28
		c0.276-0.075,0.6-0.249,0.969-0.518c0.371-0.268,0.709-0.554,1.019-0.86c1.428-1.306,2.802-2.81,4.12-4.513
		c1.326-1.71,2.404-3.232,3.233-4.562c0.382-0.703,0.91-1.085,1.583-1.146c0.675-0.058,1.304,0.077,1.886,0.409
		c0.583,0.333,1.005,0.807,1.266,1.422c0.259,0.616,0.162,1.279-0.292,1.988c-0.326,0.473-0.763,1.162-1.312,2.062
		c-0.549,0.9-1.177,1.858-1.883,2.871c-0.706,1.012-1.472,2.058-2.298,3.138c-0.825,1.081-1.678,2.078-2.56,2.996
		c-1.754,1.826-3.294,3.072-4.623,3.745c-1.324,0.668-2.485,0.976-3.49,0.929c-1.001-0.05-1.832-0.412-2.494-1.091
		c-0.662-0.678-1.17-1.5-1.529-2.473c-0.538-1.487-0.582-3.145-0.135-4.972C64.512,100.73,65.244,98.612,66.268,96.2z"/>
	<path fill="#BDC3C7" d="M103.624,76.041c1.265,0.896,2.2,2.182,2.804,3.854c0.603,1.677,0.869,3.613,0.8,5.812
		c-0.072,2.198-0.463,4.525-1.171,6.982c-0.708,2.447-1.729,4.855-3.061,7.214c-0.351,0.651-0.717,1.259-1.1,1.824
		c-0.383,0.566-0.749,1.092-1.095,1.576c1.32-0.733,2.86-1.874,4.62-3.43c1.629-1.401,2.876-2.741,3.735-4.023
		c0.861-1.284,1.761-2.633,2.701-4.053c0.507-0.753,1.144-1.16,1.909-1.227c0.767-0.062,1.462,0.081,2.087,0.435
		c0.625,0.355,1.086,0.858,1.383,1.515c0.295,0.656,0.184,1.362-0.332,2.12c-0.738,1.092-1.821,2.536-3.247,4.331
		c-1.418,1.785-3.099,3.747-5.036,5.878c-1.498,1.548-3.146,2.802-4.941,3.766c-1.783,0.957-3.57,1.667-5.363,2.132
		c-1.781,0.461-3.479,0.723-5.101,0.785c-1.61,0.06-3.011,0.007-4.206-0.163c-1.65-0.018-2.994-0.459-4.038-1.326
		c-1.106-0.862-1.915-2.028-2.431-3.503l-1.062,2.78c-0.449,1.079-1.138,1.765-2.062,2.063c-0.921,0.296-1.808,0.268-2.66-0.086
		c-0.849-0.352-1.507-1.007-1.976-1.963c-0.468-0.955-0.421-2.153,0.141-3.6l21.13-55.256c0.271-0.824,0.834-1.386,1.691-1.683
		c0.857-0.296,1.718-0.375,2.583-0.232c0.866,0.143,1.562,0.508,2.086,1.092c0.524,0.589,0.611,1.384,0.262,2.389l-9.463,25.677
		c1.825-1.452,3.662-2.338,5.513-2.65C100.59,74.756,102.223,75.078,103.624,76.041z M97.184,96.388
		c0.89-1.532,1.646-3.09,2.267-4.668c0.622-1.58,1.053-3.058,1.296-4.432c0.242-1.373,0.313-2.561,0.208-3.562
		c-0.104-0.998-0.399-1.686-0.883-2.064c-0.554-0.374-1.242-0.461-2.067-0.261c-0.822,0.201-1.727,0.663-2.712,1.385
		c-0.983,0.718-1.979,1.691-2.986,2.919c-1.004,1.225-1.938,2.598-2.801,4.12c-1.719,3.106-2.754,6.004-3.113,8.703
		c-0.361,2.694-0.049,4.466,0.935,5.319c0.922,0.858,2.344,0.619,4.278-0.73C93.551,101.761,95.412,99.52,97.184,96.388z"/>
	<path fill="#BDC3C7" d="M135.122,91.027c-1.813,1.93-3.573,3.441-5.283,4.539c-1.701,1.093-3.313,1.92-4.84,2.492
		c-1.519,0.569-2.915,0.902-4.191,1.002c-1.272,0.101-2.35,0.115-3.24,0.044c0.147,1.326,0.648,2.42,1.503,3.286
		c0.856,0.868,1.942,1.426,3.259,1.671c1.321,0.246,2.841,0.178,4.56-0.209c1.731-0.389,3.531-1.226,5.402-2.517
		c0.94-0.604,1.902-1.342,2.89-2.212c0.989-0.87,1.964-1.787,2.921-2.751c0.96-0.966,1.864-1.914,2.709-2.842
		c0.849-0.93,1.518-1.792,2.005-2.589c0.488-0.794,1.161-1.227,2.02-1.298c0.861-0.068,1.642,0.062,2.344,0.391
		c0.701,0.331,1.22,0.865,1.553,1.601c0.33,0.739,0.249,1.511-0.249,2.312c-0.498,0.802-1.18,1.715-2.046,2.736
		c-0.864,1.02-1.807,2.103-2.827,3.246c-1.019,1.141-2.113,2.279-3.282,3.411c-1.167,1.128-2.347,2.168-3.542,3.112
		c-2.375,1.969-4.906,3.343-7.587,4.129c-2.654,0.781-5.169,1.069-7.548,0.879c-2.357-0.19-4.437-0.831-6.241-1.923
		c-1.793-1.079-3.049-2.562-3.772-4.45c-1.011-2.533-1.354-5.169-1.03-7.917c0.325-2.747,1.066-5.326,2.225-7.741
		c1.384-2.765,3.015-5.243,4.896-7.436c1.896-2.212,3.878-4.044,5.955-5.498c2.091-1.463,4.237-2.434,6.439-2.905
		c2.221-0.476,4.282-0.387,6.181,0.269c1.75,0.673,2.873,1.772,3.355,3.302c0.483,1.53,0.544,3.173,0.182,4.917
		c-0.362,1.745-1.004,3.432-1.923,5.061C137.004,88.762,136.071,90.058,135.122,91.027z M118.791,92.853
		c1.64,0.045,3.386-0.314,5.238-1.076c1.864-0.765,3.646-2.063,5.343-3.896c1.863-2.019,2.956-3.893,3.269-5.613
		c0.312-1.72-0.314-2.543-1.874-2.467c-0.777,0.037-1.667,0.399-2.67,1.082c-1,0.682-2.033,1.613-3.1,2.794
		c-1.065,1.18-2.124,2.541-3.178,4.085c-1.052,1.54-2.023,3.193-2.917,4.965L118.791,92.853z"/>
	<path fill="#BDC3C7" d="M142.816,90.942c1.63-2.048,3.393-4.617,5.292-7.714c1.913-3.115,3.669-6.001,5.269-8.653
		c-1.011-1.27-1.79-2.834-2.334-4.697c-0.545-1.858-0.837-3.755-0.879-5.69c-0.043-1.932,0.188-3.78,0.688-5.54
		c0.502-1.764,1.383-3.233,2.648-4.41c1.863-1.684,3.654-2.632,5.372-2.844c1.727-0.212,3.203,0.118,4.426,0.991
		c1.227,0.88,2.127,2.176,2.703,3.889c0.574,1.719,0.685,3.593,0.333,5.612c-0.178,1.192-0.618,2.583-1.323,4.171
		c-0.704,1.584-1.535,3.308-2.495,5.17c1.049,0.206,2.233,0.134,3.555-0.219c1.415-0.359,2.615-0.363,3.598-0.015
		c0.984,0.352,1.749,0.878,2.29,1.576c0.541,0.703,0.812,1.489,0.812,2.358c0,0.872-0.27,1.595-0.812,2.171
		c-0.361,0.385-1.079,1.242-2.154,2.569c-1.072,1.326-2.294,2.898-3.666,4.721c-1.366,1.813-2.748,3.734-4.142,5.755
		c-1.39,2.014-2.579,3.924-3.567,5.731c-0.987,1.804-1.715,3.396-2.183,4.78c-0.469,1.385-0.405,2.294,0.192,2.736
		c0.94,0.89,2.271,0.976,3.998,0.25c1.736-0.728,3.571-1.844,5.507-3.353c1.946-1.519,3.865-3.229,5.749-5.135
		c1.896-1.916,3.44-3.63,4.627-5.135c0.64-0.756,1.444-1.172,2.411-1.247c0.971-0.075,1.851,0.062,2.642,0.41
		c0.79,0.351,1.374,0.892,1.75,1.628c0.373,0.737,0.232,1.534-0.42,2.387c-1.4,1.983-3.37,4.313-5.9,6.98
		c-2.51,2.645-5.268,4.991-8.265,7.043c-2.97,2.032-5.971,3.479-9.008,4.351c-3.006,0.86-5.766,0.563-8.292-0.874
		c-2.172-1.158-3.374-2.964-3.623-5.421c-0.249-2.451,0.164-5.108,1.243-7.976c1.079-2.877,2.627-5.802,4.648-8.779
		c2.033-2.997,4.254-5.576,6.666-7.737c0.692-0.66,1.06-1.104,1.105-1.331c0.042-0.227-0.846-0.653-2.658-1.284
		c-2.143,3.58-4.207,6.863-6.189,9.857c-1.971,2.971-3.284,4.94-3.948,5.921c-0.664,0.894-1.427,1.368-2.292,1.429
		c-0.863,0.06-1.622-0.121-2.274-0.544c-0.653-0.421-1.119-0.998-1.405-1.731C142.229,92.371,142.329,91.653,142.816,90.942z
		 M158.875,58.168c-0.689,0.059-1.224,0.394-1.61,1.005c-0.384,0.614-0.641,1.39-0.769,2.335c-0.127,0.945-0.107,1.946,0.065,3.002
		c0.171,1.055,0.514,2.057,1.027,3.002c0.514-1.107,0.985-2.213,1.417-3.317c0.43-1.105,0.732-2.114,0.906-3.023
		c0.172-0.908,0.172-1.646,0-2.217C159.736,58.387,159.392,58.124,158.875,58.168z"/>
</g>
<g>
	<polygon id="polygon3091" fill="#ABADAF" points="259.475,66.383 269.77,42.069 281.686,43.037 281.686,104.358 270.484,105.281 
		270.484,69.017 259.508,94.31 259.258,94.322 247.691,68.941 247.691,107.159 234.471,108.247 234.471,39.205 248.631,40.354 	"/>
</g>
<polygon id="polygon3093" fill="#ABADAF" points="282.668,21.17 177.314,8.811 177.314,22.411 282.668,31.853 "/>
<polygon id="polygon3101" fill="#BDC3C7" points="15.333,21.17 177.314,8.811 177.314,22.411 15.333,31.853 "/>
<polygon id="polygon3095" fill="#ABADAF" points="282.668,116.146 177.314,125.588 177.314,139.189 282.668,126.828 "/>
<polygon id="polygon3103" fill="#BDC3C7" points="15.333,116.146 177.314,125.588 177.314,139.189 15.333,126.828 "/>
<g>
	<polygon id="polygon3091_1_" fill="#ABADAF" points="205.852,64.763 217.502,37.242 230.99,38.338 230.99,107.745 218.312,108.791 
		218.312,67.742 205.887,96.371 205.604,96.387 192.514,67.658 192.514,110.915 177.548,112.146 177.548,34 193.576,35.301 	"/>
</g>
</svg>
